<?xml version="1.0" encoding="UTF-8"?>
<svg xmlns="http://www.w3.org/2000/svg" viewBox="0 0 330.32 207.07">
  <defs>
    <style>
      .cls-1 {
        fill: #ff0054;
      }
    </style>
  </defs>
  <g id="Layer_2" data-name="Layer 2">
    <g>
      <rect x="49.83" y="49.78" width="12.84" height="49.83"/>
      <path d="M56.2,27.17c-2.26,0-4.19.78-5.77,2.35-1.59,1.56-2.38,3.5-2.38,5.79s.79,4.19,2.38,5.79c1.58,1.6,3.5,2.4,5.77,2.4s4.23-.8,5.8-2.4c1.56-1.6,2.35-3.53,2.35-5.79s-.78-4.23-2.35-5.79c-1.57-1.57-3.5-2.35-5.8-2.35Z"/>
      <path d="M106.69,54.85h-.27c-.94-.93-1.95-1.78-3.06-2.53-3.21-2.19-6.95-3.28-11.24-3.28-3.82,0-7.45.96-10.91,2.89-3.46,1.92-6.28,4.74-8.47,8.46-2.18,3.72-3.28,8.3-3.28,13.72,0,4.07.63,7.65,1.88,10.75,1.26,3.1,2.95,5.71,5.07,7.82,2.13,2.11,4.51,3.7,7.14,4.77,2.64,1.07,5.33,1.6,8.09,1.6,4.22,0,7.97-1.15,11.26-3.47,1.19-.83,2.28-1.77,3.28-2.81h.21v3.66c0,2.7-.8,4.86-2.4,6.49-1.6,1.63-3.54,2.81-5.82,3.54-2.28.73-4.47,1.09-6.58,1.09-2.52,0-5-.41-7.45-1.23-2.45-.82-4.45-1.76-6.01-2.81l-4.32,9.98c1.95,1.06,4.62,2.09,8,3.1,3.38,1.01,7.09,1.51,11.12,1.51,3.6,0,6.96-.47,10.07-1.42,3.12-.95,5.85-2.36,8.19-4.26,2.34-1.89,4.16-4.26,5.47-7.12,1.3-2.86,1.96-6.19,1.96-10v-45.52h-11.96v5.07ZM105.27,81.35c-1.07,2.19-2.53,3.9-4.37,5.14-1.85,1.24-3.96,1.86-6.35,1.86s-4.56-.64-6.42-1.91c-1.86-1.27-3.32-3-4.37-5.19-1.06-2.19-1.58-4.68-1.58-7.47s.53-5.29,1.6-7.4c1.07-2.11,2.55-3.75,4.45-4.93,1.89-1.18,4.05-1.77,6.46-1.77s4.45.57,6.28,1.72c1.83,1.15,3.27,2.78,4.33,4.88,1.05,2.11,1.58,4.61,1.58,7.49s-.54,5.37-1.61,7.56Z"/>
      <path d="M164.37,51.48c-2.46-1.63-5.48-2.44-9.05-2.44-2.7,0-5.23.45-7.61,1.35-2.37.9-4.41,2.23-6.12,4-.5.52-.94,1.09-1.35,1.68v-6.29h-12.84v49.87h12.84v-29.59c0-2.2.42-4.06,1.28-5.56.85-1.5,2.02-2.64,3.51-3.42,1.49-.78,3.15-1.16,4.98-1.16,2.76,0,4.96.84,6.58,2.54,1.63,1.69,2.44,4.19,2.44,7.51v29.68h12.84v-32.47c0-3.38-.64-6.44-1.91-9.16-1.27-2.73-3.14-4.91-5.61-6.54Z"/>
      <rect x="180.64" y="49.78" width="12.84" height="49.83"/>
      <path d="M187.01,27.17c-2.27,0-4.19.78-5.76,2.35-1.59,1.56-2.37,3.5-2.37,5.79s.79,4.19,2.37,5.79c1.58,1.6,3.5,2.4,5.76,2.4s4.23-.8,5.79-2.4c1.56-1.6,2.35-3.53,2.35-5.79s-.79-4.23-2.35-5.79c-1.57-1.57-3.5-2.35-5.79-2.35Z"/>
      <path d="M227.34,88.89c-.67.17-1.36.25-2.07.25-1.52,0-2.83-.49-3.93-1.47-1.1-.98-1.65-2.6-1.65-4.86v-22.61h11.72v-10.42h-11.72v-14.45h-12.84v14.45h-8.19v10.42h8.19v23.35c0,4.93,1.43,8.97,4.3,12.12,2.87,3.15,7.14,4.72,12.82,4.72,1.77,0,3.43-.17,5-.51,1.57-.34,3-.85,4.31-1.54l-4.19-10.14c-.49.28-1.08.5-1.74.68Z"/>
      <path d="M277.9,60.06c-2.08-3.46-4.83-6.14-8.26-8.05-3.43-1.91-7.21-2.86-11.33-2.86-4.34,0-8.34,1.05-11.98,3.16-3.64,2.11-6.56,5.08-8.75,8.91-2.15,3.77-3.24,8.23-3.27,13.38h0s0,.09,0,.13c0,.03,0,.07,0,.1,0,.54.02,1.07.04,1.6,0,.03,0,.06,0,.09.02.3.04.6.07.9.3,4.01,1.23,7.57,2.81,10.68,1.95,3.82,4.74,6.78,8.35,8.88,3.62,2.1,7.94,3.15,12.98,3.15,3.72,0,7.04-.55,9.94-1.66,2.9-1.11,5.32-2.66,7.26-4.66,1.94-2,3.31-4.33,4.11-6.99l-10.49-3.54c-.51,1.39-1.27,2.57-2.28,3.53-1.01.96-2.21,1.69-3.59,2.17-1.39.49-2.93.73-4.62.73-2.56,0-4.81-.55-6.74-1.64-1.94-1.1-3.56-2.72-4.64-4.88-.75-1.5-1.19-2.52-1.39-4.05h34.4s.27,0,.27,0c.2-1.37.24-2.41.24-3.5,0-6.86-1.04-12.11-3.12-15.57ZM245.95,70.36c.26-1.32.65-2.54,1.18-3.67,1.04-2.23,2.52-3.98,4.42-5.24,1.91-1.26,4.16-1.88,6.77-1.88,2.14,0,4.02.46,5.66,1.37,1.63.92,2.9,2.18,3.84,3.79.93,1.62,1.39,3.49,1.39,5.63h-23.25Z"/>
    </g>
  </g>
  <g id="Layer_3" data-name="Layer 3">
    <g>
      <rect x="49.82" y="49.83" width="12.84" height="49.83"/>
      <path d="M56.19,27.22c-2.26,0-4.19.78-5.77,2.35-1.59,1.56-2.38,3.5-2.38,5.79s.79,4.19,2.38,5.79c1.58,1.6,3.5,2.4,5.77,2.4s4.23-.8,5.8-2.4c1.56-1.6,2.35-3.53,2.35-5.79s-.78-4.23-2.35-5.79c-1.57-1.57-3.5-2.35-5.8-2.35Z"/>
      <path d="M106.68,54.9h-.27c-.94-.93-1.95-1.78-3.06-2.53-3.21-2.19-6.95-3.28-11.24-3.28-3.82,0-7.45.96-10.91,2.89-3.46,1.92-6.28,4.74-8.47,8.46-2.18,3.72-3.28,8.3-3.28,13.72,0,4.07.63,7.65,1.88,10.75,1.26,3.1,2.95,5.71,5.07,7.82,2.13,2.11,4.51,3.7,7.14,4.77,2.64,1.07,5.33,1.6,8.09,1.6,4.22,0,7.97-1.15,11.26-3.47,1.19-.83,2.28-1.77,3.28-2.81h.21v3.66c0,2.7-.8,4.86-2.4,6.49-1.6,1.63-3.54,2.81-5.82,3.54-2.28.73-4.47,1.09-6.58,1.09-2.52,0-5-.41-7.45-1.23-2.45-.82-4.45-1.76-6.01-2.81l-4.32,9.98c1.95,1.06,4.62,2.09,8,3.1,3.38,1.01,7.09,1.51,11.12,1.51,3.6,0,6.96-.47,10.07-1.42,3.12-.95,5.85-2.36,8.19-4.26,2.34-1.89,4.16-4.26,5.47-7.12,1.3-2.86,1.96-6.19,1.96-10v-45.52h-11.96v5.07ZM105.26,81.39c-1.07,2.19-2.53,3.9-4.37,5.14-1.85,1.24-3.96,1.86-6.35,1.86s-4.56-.64-6.42-1.91c-1.86-1.27-3.32-3-4.37-5.19-1.06-2.19-1.58-4.68-1.58-7.47s.53-5.29,1.6-7.4c1.07-2.11,2.55-3.75,4.45-4.93,1.89-1.18,4.05-1.77,6.46-1.77s4.45.57,6.28,1.72c1.83,1.15,3.27,2.78,4.33,4.88,1.05,2.11,1.58,4.61,1.58,7.49s-.54,5.37-1.61,7.56Z"/>
      <path d="M164.36,51.53c-2.46-1.63-5.48-2.44-9.05-2.44-2.7,0-5.23.45-7.61,1.35-2.37.9-4.41,2.23-6.12,4-.5.52-.94,1.09-1.35,1.68v-6.29h-12.84v49.82h12.84v-29.54c0-2.2.42-4.06,1.28-5.56.85-1.5,2.02-2.64,3.51-3.42,1.49-.78,3.15-1.16,4.98-1.16,2.76,0,4.96.84,6.58,2.54,1.63,1.69,2.44,4.19,2.44,7.51v29.63h12.84v-32.43c0-3.38-.64-6.44-1.91-9.16-1.27-2.73-3.14-4.91-5.61-6.54Z"/>
      <rect x="180.63" y="49.83" width="12.84" height="49.83"/>
      <path d="M187,27.22c-2.27,0-4.19.78-5.76,2.35-1.59,1.56-2.37,3.5-2.37,5.79s.79,4.19,2.37,5.79c1.58,1.6,3.5,2.4,5.76,2.4s4.23-.8,5.79-2.4c1.56-1.6,2.35-3.53,2.35-5.79s-.79-4.23-2.35-5.79c-1.57-1.57-3.5-2.35-5.79-2.35Z"/>
      <path d="M227.33,88.93c-.67.17-1.36.25-2.07.25-1.52,0-2.83-.49-3.93-1.47-1.1-.98-1.65-2.6-1.65-4.86v-22.61h11.72v-10.42h-11.72v-14.45h-12.84v14.45h-8.19v10.42h8.19v23.35c0,4.93,1.43,8.97,4.3,12.12,2.87,3.15,7.14,4.72,12.82,4.72,1.77,0,3.43-.17,5-.51,1.57-.34,3-.85,4.31-1.54l-4.19-10.14c-.49.28-1.08.5-1.74.68Z"/>
      <path d="M277.89,60.1c-2.08-3.46-4.83-6.14-8.26-8.05-3.43-1.91-7.21-2.86-11.33-2.86-4.34,0-8.34,1.05-11.98,3.16-3.64,2.11-6.56,5.08-8.75,8.91-2.15,3.77-3.24,8.23-3.27,13.38h0s0,.09,0,.13c0,.03,0,.07,0,.1,0,.54.02,1.07.04,1.6,0,.03,0,.06,0,.09.02.3.04.6.07.9.3,4.01,1.23,7.57,2.81,10.68,1.95,3.82,4.74,6.78,8.35,8.88,3.62,2.1,7.94,3.15,12.98,3.15,3.72,0,7.04-.55,9.94-1.66,2.9-1.11,5.32-2.66,7.26-4.66,1.94-2,3.31-4.33,4.11-6.99l-10.49-3.54c-.51,1.39-1.27,2.57-2.28,3.53-1.01.96-2.21,1.69-3.59,2.17-1.39.49-2.93.73-4.62.73-2.56,0-4.81-.55-6.74-1.64-1.94-1.1-3.56-2.72-4.64-4.88-.75-1.5-1.19-2.52-1.39-4.05h34.4s.27,0,.27,0c.2-1.37.24-2.41.24-3.5,0-6.86-1.04-12.11-3.12-15.57ZM245.94,70.41c.26-1.32.65-2.54,1.18-3.67,1.04-2.23,2.52-3.98,4.42-5.24,1.91-1.26,4.16-1.88,6.77-1.88,2.14,0,4.02.46,5.66,1.37,1.63.92,2.9,2.18,3.84,3.79.93,1.62,1.39,3.49,1.39,5.63h-23.25Z"/>
    </g>
    <g>
      <path class="cls-1" d="M207.57,138.46c0-5.53-.84-9.75-2.51-12.54-1.68-2.79-3.89-4.95-6.65-6.48-2.76-1.54-5.8-2.31-9.13-2.31-3.5,0-6.71.85-9.65,2.55-2.93,1.7-5.28,4.09-7.04,7.18-1.73,3.04-2.61,6.63-2.64,10.77h0s0,.07,0,.1c0,.03,0,.05,0,.08,0,.43.01.86.03,1.29,0,.02,0,.05,0,.07.01.24.03.48.05.72.24,3.23.99,6.1,2.26,8.6,1.57,3.08,3.81,5.46,6.73,7.15,2.91,1.69,6.4,2.54,10.45,2.54,3,0,5.67-.45,8.01-1.34,2.34-.89,4.29-2.14,5.85-3.75,1.56-1.61,2.66-3.49,3.31-5.63l-8.45-2.85c-.41,1.12-1.02,2.07-1.84,2.84-.82.77-1.78,1.36-2.9,1.75-1.12.39-2.36.59-3.72.59-2.06,0-3.87-.44-5.43-1.32-1.56-.88-2.87-2.19-3.73-3.93-.6-1.21-.96-2.03-1.12-3.26h27.71s.21,0,.21,0c.16-1.1.2-1.94.2-2.82ZM180.27,131.26c.84-1.8,2.03-3.2,3.56-4.22,1.54-1.01,3.35-1.52,5.45-1.52,1.73,0,3.24.37,4.55,1.11,1.31.74,2.34,1.76,3.09,3.05.75,1.3,1.12,2.81,1.12,4.53h-18.73c.21-1.06.52-2.05.95-2.96Z"/>
      <g>
        <path class="cls-1" d="M157.18,118.55c-1.99-1.31-4.42-1.97-7.29-1.97-2.17,0-4.22.36-6.13,1.09-1.91.72-3.55,1.8-4.93,3.22-.4.41-.74.86-1.07,1.33v-5.04h-10.36v40.06h10.34v-23.73c0-1.77.34-3.27,1.03-4.48.69-1.21,1.63-2.13,2.83-2.75,1.2-.62,2.53-.94,4.01-.94,2.22,0,3.99.68,5.3,2.04,1.31,1.36,1.97,3.38,1.97,6.05v23.8h10.34v-26.05c0-2.72-.51-5.18-1.53-7.38-1.03-2.2-2.53-3.95-4.52-5.26Z"/>
        <path class="cls-1" d="M278.6,148.13c-.4.22-.87.41-1.41.54-.54.14-1.09.21-1.67.21-1.22,0-2.28-.39-3.17-1.18-.89-.79-1.33-2.09-1.33-3.92v-18.21h9.44v-8.39h-9.44v-8.77h-10.34v8.77h-6.59v8.39h6.59v18.81c0,3.97,1.16,7.23,3.47,9.76,2.31,2.54,5.75,3.81,10.32,3.81,1.42,0,2.77-.14,4.03-.41,1.26-.28,2.41-.69,3.46-1.24l-3.37-8.17Z"/>
        <polygon class="cls-1" points="239.24 117.19 233.11 127.52 238.86 137.22 233.11 146.92 239.24 157.25 250.74 157.26 238.87 137.22 250.74 117.19 239.24 117.19"/>
        <polygon class="cls-1" points="209.47 117.17 221.34 137.21 209.47 157.24 220.97 157.25 232.85 137.22 220.97 117.18 209.47 117.17"/>
      </g>
    </g>
  </g>
</svg>